{
	"asset":{
		"generator":"Khronos glTF Blender I/O v4.4.56",
		"version":"2.0"
	},
	"scene":0,
	"scenes":[
		{
			"name":"Scene",
			"nodes":[
				0
			]
		}
	],
	"nodes":[
		{
			"mesh":0,
			"name":"deposit.001",
			"scale":[
				0.12231186032295227,
				0.40506619215011597,
				0.26460468769073486
			],
			"translation":[
				0.8006840944290161,
				-1.6200001239776611,
				-0.01037309318780899
			]
		}
	],
	"materials":[
		{
			"doubleSided":true,
			"name":"Material.001",
			"pbrMetallicRoughness":{
				"baseColorFactor":[
					0.800000011920929,
					0.800000011920929,
					0.800000011920929,
					1
				]
			}
		}
	],
	"meshes":[
		{
			"name":"Cube.006",
			"primitives":[
				{
					"attributes":{
						"POSITION":0,
						"NORMAL":1,
						"TEXCOORD_0":2
					},
					"indices":3,
					"material":0
				}
			]
		}
	],
	"accessors":[
		{
			"bufferView":0,
			"componentType":5126,
			"count":1000,
			"max":[
				1.6295719146728516,
				8.8388671875,
				3.818424940109253
			],
			"min":[
				-14.722074508666992,
				-0.999998927116394,
				-3.740020513534546
			],
			"type":"VEC3"
		},
		{
			"bufferView":1,
			"componentType":5126,
			"count":1000,
			"type":"VEC3"
		},
		{
			"bufferView":2,
			"componentType":5126,
			"count":1000,
			"type":"VEC2"
		},
		{
			"bufferView":3,
			"componentType":5123,
			"count":3912,
			"type":"SCALAR"
		}
	],
	"bufferViews":[
		{
			"buffer":0,
			"byteLength":12000,
			"byteOffset":0,
			"target":34962
		},
		{
			"buffer":0,
			"byteLength":12000,
			"byteOffset":12000,
			"target":34962
		},
		{
			"buffer":0,
			"byteLength":8000,
			"byteOffset":24000,
			"target":34962
		},
		{
			"buffer":0,
			"byteLength":7824,
			"byteOffset":32000,
			"target":34963
		}
	],
	"buffers":[
		{
			"byteLength":39824,
			"uri":"deposits.bin"
		}
	]
}
