{
	"asset":{
		"generator":"Khronos glTF Blender I/O v5.1.18",
		"version":"2.0"
	},
	"scene":0,
	"scenes":[
		{
			"name":"Scene",
			"nodes":[
				0,
				1,
				2,
				3,
				4,
				5,
				6,
				7
			]
		}
	],
	"nodes":[
		{
			"mesh":0,
			"name":"Cylinder",
			"rotation":[
				0,
				0,
				-0.7071068286895752,
				0.7071068286895752
			],
			"scale":[
				1,
				2.2737672328948975,
				1
			],
			"translation":[
				0,
				0.42547595500946045,
				0
			]
		},
		{
			"mesh":1,
			"name":"Cube",
			"scale":[
				2.7254436016082764,
				0.5676834583282471,
				1.2716591358184814
			],
			"translation":[
				0.30327677726745605,
				-0.07918345928192139,
				0
			]
		},
		{
			"mesh":2,
			"name":"pe.003",
			"scale":[
				0.4190351963043213,
				0.5541970133781433,
				0.32620811462402344
			],
			"translation":[
				2.5747339725494385,
				-0.867835283279419,
				-0.9045878052711487
			]
		},
		{
			"mesh":3,
			"name":"pe",
			"scale":[
				0.4190351963043213,
				0.5541970133781433,
				0.32620811462402344
			],
			"translation":[
				2.5747339725494385,
				-0.867835283279419,
				0.9077378511428833
			]
		},
		{
			"mesh":4,
			"name":"pe.002",
			"scale":[
				0.4190351963043213,
				0.5541970133781433,
				0.32620811462402344
			],
			"translation":[
				-2.001854658126831,
				-0.867835283279419,
				-0.9045878052711487
			]
		},
		{
			"mesh":5,
			"name":"pe.001",
			"scale":[
				0.4190351963043213,
				0.5541970133781433,
				0.32620811462402344
			],
			"translation":[
				-2.001854658126831,
				-0.867835283279419,
				0.9331396818161011
			]
		},
		{
			"mesh":6,
			"name":"Cylinder.001",
			"rotation":[
				0,
				0,
				-0.7071068286895752,
				0.7071068286895752
			],
			"scale":[
				0.5,
				2.2737672328948975,
				0.5
			],
			"translation":[
				1.0447012186050415,
				0.42547595500946045,
				0
			]
		},
		{
			"mesh":7,
			"name":"Cylinder.002",
			"rotation":[
				0,
				0,
				-0.7071068286895752,
				0.7071068286895752
			],
			"scale":[
				0.10000000149011612,
				0.32406866550445557,
				0.10000000149011612
			],
			"translation":[
				3.1711714267730713,
				0.42547595500946045,
				0
			]
		}
	],
	"meshes":[
		{
			"name":"Cylinder",
			"primitives":[
				{
					"attributes":{
						"POSITION":0,
						"NORMAL":1,
						"TEXCOORD_0":2
					},
					"indices":3
				}
			]
		},
		{
			"name":"Cube",
			"primitives":[
				{
					"attributes":{
						"POSITION":4,
						"NORMAL":5,
						"TEXCOORD_0":6
					},
					"indices":7
				}
			]
		},
		{
			"name":"Cube.001",
			"primitives":[
				{
					"attributes":{
						"POSITION":8,
						"NORMAL":9,
						"TEXCOORD_0":10
					},
					"indices":7
				}
			]
		},
		{
			"name":"Cube.002",
			"primitives":[
				{
					"attributes":{
						"POSITION":11,
						"NORMAL":12,
						"TEXCOORD_0":13
					},
					"indices":7
				}
			]
		},
		{
			"name":"Cube.003",
			"primitives":[
				{
					"attributes":{
						"POSITION":14,
						"NORMAL":15,
						"TEXCOORD_0":16
					},
					"indices":7
				}
			]
		},
		{
			"name":"Cube.004",
			"primitives":[
				{
					"attributes":{
						"POSITION":17,
						"NORMAL":18,
						"TEXCOORD_0":19
					},
					"indices":7
				}
			]
		},
		{
			"name":"Cylinder.001",
			"primitives":[
				{
					"attributes":{
						"POSITION":20,
						"NORMAL":21,
						"TEXCOORD_0":22
					},
					"indices":3
				}
			]
		},
		{
			"name":"Cylinder.002",
			"primitives":[
				{
					"attributes":{
						"POSITION":23,
						"NORMAL":24,
						"TEXCOORD_0":25
					},
					"indices":3
				}
			]
		}
	],
	"accessors":[
		{
			"bufferView":0,
			"componentType":5126,
			"count":130,
			"max":[
				1,
				1,
				1
			],
			"min":[
				-1,
				-1,
				-1
			],
			"type":"VEC3"
		},
		{
			"bufferView":1,
			"componentType":5126,
			"count":130,
			"type":"VEC3"
		},
		{
			"bufferView":2,
			"componentType":5126,
			"count":130,
			"type":"VEC2"
		},
		{
			"bufferView":3,
			"componentType":5123,
			"count":372,
			"type":"SCALAR"
		},
		{
			"bufferView":4,
			"componentType":5126,
			"count":24,
			"max":[
				1,
				1,
				1
			],
			"min":[
				-1,
				-1,
				-1
			],
			"type":"VEC3"
		},
		{
			"bufferView":5,
			"componentType":5126,
			"count":24,
			"type":"VEC3"
		},
		{
			"bufferView":6,
			"componentType":5126,
			"count":24,
			"type":"VEC2"
		},
		{
			"bufferView":7,
			"componentType":5123,
			"count":36,
			"type":"SCALAR"
		},
		{
			"bufferView":8,
			"componentType":5126,
			"count":24,
			"max":[
				1,
				1,
				1
			],
			"min":[
				-1,
				-1,
				-1
			],
			"type":"VEC3"
		},
		{
			"bufferView":9,
			"componentType":5126,
			"count":24,
			"type":"VEC3"
		},
		{
			"bufferView":10,
			"componentType":5126,
			"count":24,
			"type":"VEC2"
		},
		{
			"bufferView":11,
			"componentType":5126,
			"count":24,
			"max":[
				1,
				1,
				1
			],
			"min":[
				-1,
				-1,
				-1
			],
			"type":"VEC3"
		},
		{
			"bufferView":12,
			"componentType":5126,
			"count":24,
			"type":"VEC3"
		},
		{
			"bufferView":13,
			"componentType":5126,
			"count":24,
			"type":"VEC2"
		},
		{
			"bufferView":14,
			"componentType":5126,
			"count":24,
			"max":[
				1,
				1,
				1
			],
			"min":[
				-1,
				-1,
				-1
			],
			"type":"VEC3"
		},
		{
			"bufferView":15,
			"componentType":5126,
			"count":24,
			"type":"VEC3"
		},
		{
			"bufferView":16,
			"componentType":5126,
			"count":24,
			"type":"VEC2"
		},
		{
			"bufferView":17,
			"componentType":5126,
			"count":24,
			"max":[
				1,
				1,
				1
			],
			"min":[
				-1,
				-1,
				-1
			],
			"type":"VEC3"
		},
		{
			"bufferView":18,
			"componentType":5126,
			"count":24,
			"type":"VEC3"
		},
		{
			"bufferView":19,
			"componentType":5126,
			"count":24,
			"type":"VEC2"
		},
		{
			"bufferView":20,
			"componentType":5126,
			"count":130,
			"max":[
				1,
				1,
				1
			],
			"min":[
				-1,
				-1,
				-1
			],
			"type":"VEC3"
		},
		{
			"bufferView":21,
			"componentType":5126,
			"count":130,
			"type":"VEC3"
		},
		{
			"bufferView":22,
			"componentType":5126,
			"count":130,
			"type":"VEC2"
		},
		{
			"bufferView":23,
			"componentType":5126,
			"count":130,
			"max":[
				1,
				1,
				1
			],
			"min":[
				-1,
				-1,
				-1
			],
			"type":"VEC3"
		},
		{
			"bufferView":24,
			"componentType":5126,
			"count":130,
			"type":"VEC3"
		},
		{
			"bufferView":25,
			"componentType":5126,
			"count":130,
			"type":"VEC2"
		}
	],
	"bufferViews":[
		{
			"buffer":0,
			"byteLength":1560,
			"byteOffset":0,
			"target":34962
		},
		{
			"buffer":0,
			"byteLength":1560,
			"byteOffset":1560,
			"target":34962
		},
		{
			"buffer":0,
			"byteLength":1040,
			"byteOffset":3120,
			"target":34962
		},
		{
			"buffer":0,
			"byteLength":744,
			"byteOffset":4160,
			"target":34963
		},
		{
			"buffer":0,
			"byteLength":288,
			"byteOffset":4904,
			"target":34962
		},
		{
			"buffer":0,
			"byteLength":288,
			"byteOffset":5192,
			"target":34962
		},
		{
			"buffer":0,
			"byteLength":192,
			"byteOffset":5480,
			"target":34962
		},
		{
			"buffer":0,
			"byteLength":72,
			"byteOffset":5672,
			"target":34963
		},
		{
			"buffer":0,
			"byteLength":288,
			"byteOffset":5744,
			"target":34962
		},
		{
			"buffer":0,
			"byteLength":288,
			"byteOffset":6032,
			"target":34962
		},
		{
			"buffer":0,
			"byteLength":192,
			"byteOffset":6320,
			"target":34962
		},
		{
			"buffer":0,
			"byteLength":288,
			"byteOffset":6512,
			"target":34962
		},
		{
			"buffer":0,
			"byteLength":288,
			"byteOffset":6800,
			"target":34962
		},
		{
			"buffer":0,
			"byteLength":192,
			"byteOffset":7088,
			"target":34962
		},
		{
			"buffer":0,
			"byteLength":288,
			"byteOffset":7280,
			"target":34962
		},
		{
			"buffer":0,
			"byteLength":288,
			"byteOffset":7568,
			"target":34962
		},
		{
			"buffer":0,
			"byteLength":192,
			"byteOffset":7856,
			"target":34962
		},
		{
			"buffer":0,
			"byteLength":288,
			"byteOffset":8048,
			"target":34962
		},
		{
			"buffer":0,
			"byteLength":288,
			"byteOffset":8336,
			"target":34962
		},
		{
			"buffer":0,
			"byteLength":192,
			"byteOffset":8624,
			"target":34962
		},
		{
			"buffer":0,
			"byteLength":1560,
			"byteOffset":8816,
			"target":34962
		},
		{
			"buffer":0,
			"byteLength":1560,
			"byteOffset":10376,
			"target":34962
		},
		{
			"buffer":0,
			"byteLength":1040,
			"byteOffset":11936,
			"target":34962
		},
		{
			"buffer":0,
			"byteLength":1560,
			"byteOffset":12976,
			"target":34962
		},
		{
			"buffer":0,
			"byteLength":1560,
			"byteOffset":14536,
			"target":34962
		},
		{
			"buffer":0,
			"byteLength":1040,
			"byteOffset":16096,
			"target":34962
		}
	],
	"buffers":[
		{
			"byteLength":17136,
			"uri":"decanter.bin"
		}
	]
}
