{
	"asset":{
		"generator":"Khronos glTF Blender I/O v5.1.18",
		"version":"2.0"
	},
	"scene":0,
	"scenes":[
		{
			"name":"Scene",
			"nodes":[
				0,
				1,
				2,
				3,
				4,
				5,
				6,
				7,
				8,
				9
			]
		}
	],
	"nodes":[
		{
			"mesh":0,
			"name":"base",
			"scale":[
				0.12231186032295227,
				0.40506619215011597,
				0.26460468769073486
			],
			"translation":[
				0.7600281834602356,
				-0.8590039014816284,
				-0.014247700572013855
			]
		},
		{
			"mesh":1,
			"name":"raio_base",
			"scale":[
				1.7999999523162842,
				0.2891521155834198,
				1.7999999523162842
			],
			"translation":[
				0,
				-0.3855241537094116,
				0
			]
		},
		{
			"mesh":2,
			"name":"Cylinder",
			"scale":[
				0.19122904539108276,
				0.8876911401748657,
				0.19433775544166565
			],
			"translation":[
				0,
				0.8110993504524231,
				0
			]
		},
		{
			"mesh":3,
			"name":"cone",
			"rotation":[
				0,
				0,
				0.880460798740387,
				0.4741189479827881
			],
			"scale":[
				0.9099360704421997,
				0.7013538479804993,
				1
			],
			"translation":[
				0.6638107299804688,
				0.3058674931526184,
				0
			]
		},
		{
			"mesh":4,
			"name":"Cone.001",
			"rotation":[
				0.7576596736907959,
				0.4208376109600067,
				0.4431920349597931,
				0.22897295653820038
			],
			"scale":[
				0.9099360704421997,
				0.7013538479804993,
				1
			],
			"translation":[
				-0.3347514271736145,
				0.3156214952468872,
				-0.5506390929222107
			]
		},
		{
			"mesh":5,
			"name":"Cone.002",
			"rotation":[
				-0.8172085881233215,
				-0.4159604012966156,
				0.33175596594810486,
				0.22155149281024933
			],
			"scale":[
				0.9099360704421997,
				0.7013538479804993,
				1
			],
			"translation":[
				-0.4045931100845337,
				0.3017681837081909,
				0.5213576555252075
			]
		},
		{
			"mesh":6,
			"name":"Cylinder.001",
			"rotation":[
				-0.8172085881233215,
				-0.4159603714942932,
				0.33175593614578247,
				0.22155150771141052
			],
			"scale":[
				0.09638399630784988,
				0.18870435655117035,
				0.0977325513958931
			],
			"translation":[
				-0.8467053174972534,
				0.7609008550643921,
				1.125131368637085
			]
		},
		{
			"mesh":7,
			"name":"Cylinder.002",
			"rotation":[
				0,
				0,
				0.880460798740387,
				0.4741189479827881
			],
			"scale":[
				0.09638410061597824,
				0.2687043845653534,
				0.0977325513958931
			],
			"translation":[
				1.3108067512512207,
				0.7723735570907593,
				0.015656355768442154
			]
		},
		{
			"mesh":8,
			"name":"Cylinder.003",
			"rotation":[
				0.7576595544815063,
				0.4208375811576843,
				0.4431919753551483,
				0.22897294163703918
			],
			"scale":[
				0.09638410061597824,
				0.19870436191558838,
				0.0977325439453125
			],
			"translation":[
				-0.7790477871894836,
				0.8126502633094788,
				-1.2130531072616577
			]
		},
		{
			"mesh":9,
			"name":"Cylinder.004",
			"rotation":[
				0.7576595544815063,
				0.4208375811576843,
				0.4431919753551483,
				0.22897294163703918
			],
			"scale":[
				0.09638410061597824,
				0.19870436191558838,
				0.0977325439453125
			],
			"translation":[
				-0.7790477871894836,
				0.8126502633094788,
				-1.2130531072616577
			]
		}
	],
	"materials":[
		{
			"doubleSided":true,
			"name":"Material.001",
			"pbrMetallicRoughness":{
				"baseColorFactor":[
					0.800000011920929,
					0.800000011920929,
					0.800000011920929,
					1
				]
			}
		},
		{
			"doubleSided":true,
			"name":"Material.004",
			"pbrMetallicRoughness":{
				"baseColorFactor":[
					0.800000011920929,
					0.800000011920929,
					0.800000011920929,
					1
				]
			}
		}
	],
	"meshes":[
		{
			"name":"Cube.001",
			"primitives":[
				{
					"attributes":{
						"POSITION":0,
						"NORMAL":1,
						"TEXCOORD_0":2
					},
					"indices":3,
					"material":0
				}
			]
		},
		{
			"name":"Cylinder.001",
			"primitives":[
				{
					"attributes":{
						"POSITION":4,
						"NORMAL":5,
						"TEXCOORD_0":6
					},
					"indices":7,
					"material":1
				}
			]
		},
		{
			"name":"Cylinder.003",
			"primitives":[
				{
					"attributes":{
						"POSITION":8,
						"NORMAL":9,
						"TEXCOORD_0":10
					},
					"indices":7
				}
			]
		},
		{
			"name":"Cone",
			"primitives":[
				{
					"attributes":{
						"POSITION":11,
						"NORMAL":12,
						"TEXCOORD_0":13
					},
					"indices":14
				}
			]
		},
		{
			"name":"Cone.001",
			"primitives":[
				{
					"attributes":{
						"POSITION":15,
						"NORMAL":16,
						"TEXCOORD_0":17
					},
					"indices":14
				}
			]
		},
		{
			"name":"Cone.002",
			"primitives":[
				{
					"attributes":{
						"POSITION":18,
						"NORMAL":19,
						"TEXCOORD_0":20
					},
					"indices":14
				}
			]
		},
		{
			"name":"Cylinder.002",
			"primitives":[
				{
					"attributes":{
						"POSITION":21,
						"NORMAL":22,
						"TEXCOORD_0":23
					},
					"indices":7
				}
			]
		},
		{
			"name":"Cylinder.004",
			"primitives":[
				{
					"attributes":{
						"POSITION":24,
						"NORMAL":25,
						"TEXCOORD_0":26
					},
					"indices":7
				}
			]
		},
		{
			"name":"Cylinder.005",
			"primitives":[
				{
					"attributes":{
						"POSITION":27,
						"NORMAL":28,
						"TEXCOORD_0":29
					},
					"indices":7
				}
			]
		},
		{
			"name":"Cylinder.006",
			"primitives":[
				{
					"attributes":{
						"POSITION":30,
						"NORMAL":31,
						"TEXCOORD_0":32
					},
					"indices":7
				}
			]
		}
	],
	"accessors":[
		{
			"bufferView":0,
			"componentType":5126,
			"count":191,
			"max":[
				7.279037952423096,
				1.4386652708053589,
				6.38372278213501
			],
			"min":[
				-20.22862434387207,
				-1.925847053527832,
				-6.331521034240723
			],
			"type":"VEC3"
		},
		{
			"bufferView":1,
			"componentType":5126,
			"count":191,
			"type":"VEC3"
		},
		{
			"bufferView":2,
			"componentType":5126,
			"count":191,
			"type":"VEC2"
		},
		{
			"bufferView":3,
			"componentType":5123,
			"count":378,
			"type":"SCALAR"
		},
		{
			"bufferView":4,
			"componentType":5126,
			"count":130,
			"max":[
				1,
				1,
				1
			],
			"min":[
				-1,
				-1,
				-1
			],
			"type":"VEC3"
		},
		{
			"bufferView":5,
			"componentType":5126,
			"count":130,
			"type":"VEC3"
		},
		{
			"bufferView":6,
			"componentType":5126,
			"count":130,
			"type":"VEC2"
		},
		{
			"bufferView":7,
			"componentType":5123,
			"count":372,
			"type":"SCALAR"
		},
		{
			"bufferView":8,
			"componentType":5126,
			"count":130,
			"max":[
				1,
				1,
				1
			],
			"min":[
				-1,
				-1,
				-1
			],
			"type":"VEC3"
		},
		{
			"bufferView":9,
			"componentType":5126,
			"count":130,
			"type":"VEC3"
		},
		{
			"bufferView":10,
			"componentType":5126,
			"count":130,
			"type":"VEC2"
		},
		{
			"bufferView":11,
			"componentType":5126,
			"count":65,
			"max":[
				1,
				1,
				1
			],
			"min":[
				-1,
				-1,
				-1
			],
			"type":"VEC3"
		},
		{
			"bufferView":12,
			"componentType":5126,
			"count":65,
			"type":"VEC3"
		},
		{
			"bufferView":13,
			"componentType":5126,
			"count":65,
			"type":"VEC2"
		},
		{
			"bufferView":14,
			"componentType":5123,
			"count":186,
			"type":"SCALAR"
		},
		{
			"bufferView":15,
			"componentType":5126,
			"count":65,
			"max":[
				1,
				1,
				1
			],
			"min":[
				-1,
				-1,
				-1
			],
			"type":"VEC3"
		},
		{
			"bufferView":16,
			"componentType":5126,
			"count":65,
			"type":"VEC3"
		},
		{
			"bufferView":17,
			"componentType":5126,
			"count":65,
			"type":"VEC2"
		},
		{
			"bufferView":18,
			"componentType":5126,
			"count":65,
			"max":[
				1,
				1,
				1
			],
			"min":[
				-1,
				-1,
				-1
			],
			"type":"VEC3"
		},
		{
			"bufferView":19,
			"componentType":5126,
			"count":65,
			"type":"VEC3"
		},
		{
			"bufferView":20,
			"componentType":5126,
			"count":65,
			"type":"VEC2"
		},
		{
			"bufferView":21,
			"componentType":5126,
			"count":130,
			"max":[
				1,
				1,
				1
			],
			"min":[
				-1,
				-1,
				-1
			],
			"type":"VEC3"
		},
		{
			"bufferView":22,
			"componentType":5126,
			"count":130,
			"type":"VEC3"
		},
		{
			"bufferView":23,
			"componentType":5126,
			"count":130,
			"type":"VEC2"
		},
		{
			"bufferView":24,
			"componentType":5126,
			"count":130,
			"max":[
				1,
				1,
				1
			],
			"min":[
				-1,
				-1,
				-1
			],
			"type":"VEC3"
		},
		{
			"bufferView":25,
			"componentType":5126,
			"count":130,
			"type":"VEC3"
		},
		{
			"bufferView":26,
			"componentType":5126,
			"count":130,
			"type":"VEC2"
		},
		{
			"bufferView":27,
			"componentType":5126,
			"count":130,
			"max":[
				1,
				1,
				1
			],
			"min":[
				-1,
				-1,
				-1
			],
			"type":"VEC3"
		},
		{
			"bufferView":28,
			"componentType":5126,
			"count":130,
			"type":"VEC3"
		},
		{
			"bufferView":29,
			"componentType":5126,
			"count":130,
			"type":"VEC2"
		},
		{
			"bufferView":30,
			"componentType":5126,
			"count":130,
			"max":[
				1,
				1,
				1
			],
			"min":[
				-1,
				-1,
				-1
			],
			"type":"VEC3"
		},
		{
			"bufferView":31,
			"componentType":5126,
			"count":130,
			"type":"VEC3"
		},
		{
			"bufferView":32,
			"componentType":5126,
			"count":130,
			"type":"VEC2"
		}
	],
	"bufferViews":[
		{
			"buffer":0,
			"byteLength":2292,
			"byteOffset":0,
			"target":34962
		},
		{
			"buffer":0,
			"byteLength":2292,
			"byteOffset":2292,
			"target":34962
		},
		{
			"buffer":0,
			"byteLength":1528,
			"byteOffset":4584,
			"target":34962
		},
		{
			"buffer":0,
			"byteLength":756,
			"byteOffset":6112,
			"target":34963
		},
		{
			"buffer":0,
			"byteLength":1560,
			"byteOffset":6868,
			"target":34962
		},
		{
			"buffer":0,
			"byteLength":1560,
			"byteOffset":8428,
			"target":34962
		},
		{
			"buffer":0,
			"byteLength":1040,
			"byteOffset":9988,
			"target":34962
		},
		{
			"buffer":0,
			"byteLength":744,
			"byteOffset":11028,
			"target":34963
		},
		{
			"buffer":0,
			"byteLength":1560,
			"byteOffset":11772,
			"target":34962
		},
		{
			"buffer":0,
			"byteLength":1560,
			"byteOffset":13332,
			"target":34962
		},
		{
			"buffer":0,
			"byteLength":1040,
			"byteOffset":14892,
			"target":34962
		},
		{
			"buffer":0,
			"byteLength":780,
			"byteOffset":15932,
			"target":34962
		},
		{
			"buffer":0,
			"byteLength":780,
			"byteOffset":16712,
			"target":34962
		},
		{
			"buffer":0,
			"byteLength":520,
			"byteOffset":17492,
			"target":34962
		},
		{
			"buffer":0,
			"byteLength":372,
			"byteOffset":18012,
			"target":34963
		},
		{
			"buffer":0,
			"byteLength":780,
			"byteOffset":18384,
			"target":34962
		},
		{
			"buffer":0,
			"byteLength":780,
			"byteOffset":19164,
			"target":34962
		},
		{
			"buffer":0,
			"byteLength":520,
			"byteOffset":19944,
			"target":34962
		},
		{
			"buffer":0,
			"byteLength":780,
			"byteOffset":20464,
			"target":34962
		},
		{
			"buffer":0,
			"byteLength":780,
			"byteOffset":21244,
			"target":34962
		},
		{
			"buffer":0,
			"byteLength":520,
			"byteOffset":22024,
			"target":34962
		},
		{
			"buffer":0,
			"byteLength":1560,
			"byteOffset":22544,
			"target":34962
		},
		{
			"buffer":0,
			"byteLength":1560,
			"byteOffset":24104,
			"target":34962
		},
		{
			"buffer":0,
			"byteLength":1040,
			"byteOffset":25664,
			"target":34962
		},
		{
			"buffer":0,
			"byteLength":1560,
			"byteOffset":26704,
			"target":34962
		},
		{
			"buffer":0,
			"byteLength":1560,
			"byteOffset":28264,
			"target":34962
		},
		{
			"buffer":0,
			"byteLength":1040,
			"byteOffset":29824,
			"target":34962
		},
		{
			"buffer":0,
			"byteLength":1560,
			"byteOffset":30864,
			"target":34962
		},
		{
			"buffer":0,
			"byteLength":1560,
			"byteOffset":32424,
			"target":34962
		},
		{
			"buffer":0,
			"byteLength":1040,
			"byteOffset":33984,
			"target":34962
		},
		{
			"buffer":0,
			"byteLength":1560,
			"byteOffset":35024,
			"target":34962
		},
		{
			"buffer":0,
			"byteLength":1560,
			"byteOffset":36584,
			"target":34962
		},
		{
			"buffer":0,
			"byteLength":1040,
			"byteOffset":38144,
			"target":34962
		}
	],
	"buffers":[
		{
			"byteLength":39184,
			"uri":"mill.bin"
		}
	]
}
