{
	"asset":{
		"generator":"Khronos glTF Blender I/O v5.0.21",
		"version":"2.0"
	},
	"scene":0,
	"scenes":[
		{
			"name":"Scene",
			"nodes":[
				0,
				1,
				2,
				3,
				4,
				5,
				6
			]
		}
	],
	"nodes":[
		{
			"mesh":0,
			"name":"saida",
			"scale":[
				1,
				0.710432767868042,
				1
			],
			"translation":[
				0.009694131091237068,
				3.223829746246338,
				-0.020316023379564285
			]
		},
		{
			"mesh":1,
			"name":"entrada",
			"translation":[
				0,
				4.573720455169678,
				0
			]
		},
		{
			"mesh":2,
			"name":"base",
			"scale":[
				0.15772034227848053,
				1.49301278591156,
				0.1538788080215454
			],
			"translation":[
				0.8469880819320679,
				1.3552801609039307,
				-0.8483903408050537
			]
		},
		{
			"mesh":3,
			"name":"base.001",
			"scale":[
				0.15772034227848053,
				1.49301278591156,
				0.1538788080215454
			],
			"translation":[
				-0.8337209224700928,
				1.3552801609039307,
				-0.8484240770339966
			]
		},
		{
			"mesh":4,
			"name":"base.002",
			"scale":[
				0.15772034227848053,
				1.49301278591156,
				0.1538788080215454
			],
			"translation":[
				-0.8337209224700928,
				1.3552801609039307,
				0.8451652526855469
			]
		},
		{
			"mesh":5,
			"name":"base.003",
			"scale":[
				0.15772034227848053,
				1.49301278591156,
				0.1538788080215454
			],
			"translation":[
				0.8469880819320679,
				1.3552801609039307,
				0.8508914709091187
			]
		},
		{
			"mesh":6,
			"name":"entrada.001",
			"scale":[
				0.5710684061050415,
				0.6442703604698181,
				0.6081660389900208
			],
			"translation":[
				0,
				1.5544016361236572,
				0
			]
		}
	],
	"meshes":[
		{
			"name":"Cube",
			"primitives":[
				{
					"attributes":{
						"POSITION":0,
						"NORMAL":1,
						"TEXCOORD_0":2
					},
					"indices":3
				}
			]
		},
		{
			"name":"Cube.002",
			"primitives":[
				{
					"attributes":{
						"POSITION":4,
						"NORMAL":5,
						"TEXCOORD_0":6
					},
					"indices":3
				}
			]
		},
		{
			"name":"Cube.003",
			"primitives":[
				{
					"attributes":{
						"POSITION":7,
						"NORMAL":8,
						"TEXCOORD_0":9
					},
					"indices":10
				}
			]
		},
		{
			"name":"Cube.004",
			"primitives":[
				{
					"attributes":{
						"POSITION":11,
						"NORMAL":12,
						"TEXCOORD_0":13
					},
					"indices":10
				}
			]
		},
		{
			"name":"Cube.005",
			"primitives":[
				{
					"attributes":{
						"POSITION":14,
						"NORMAL":15,
						"TEXCOORD_0":16
					},
					"indices":10
				}
			]
		},
		{
			"name":"Cube.006",
			"primitives":[
				{
					"attributes":{
						"POSITION":17,
						"NORMAL":18,
						"TEXCOORD_0":19
					},
					"indices":10
				}
			]
		},
		{
			"name":"Cube.001",
			"primitives":[
				{
					"attributes":{
						"POSITION":20,
						"NORMAL":21,
						"TEXCOORD_0":22
					},
					"indices":3
				}
			]
		}
	],
	"accessors":[
		{
			"bufferView":0,
			"componentType":5126,
			"count":16,
			"max":[
				1,
				0.5173118710517883,
				1
			],
			"min":[
				-1,
				-1.482688069343567,
				-1
			],
			"type":"VEC3"
		},
		{
			"bufferView":1,
			"componentType":5126,
			"count":16,
			"type":"VEC3"
		},
		{
			"bufferView":2,
			"componentType":5126,
			"count":16,
			"type":"VEC2"
		},
		{
			"bufferView":3,
			"componentType":5123,
			"count":24,
			"type":"SCALAR"
		},
		{
			"bufferView":4,
			"componentType":5126,
			"count":16,
			"max":[
				2.062779188156128,
				1,
				2.005218505859375
			],
			"min":[
				-2.0193910598754883,
				-1,
				-1.9848430156707764
			],
			"type":"VEC3"
		},
		{
			"bufferView":5,
			"componentType":5126,
			"count":16,
			"type":"VEC3"
		},
		{
			"bufferView":6,
			"componentType":5126,
			"count":16,
			"type":"VEC2"
		},
		{
			"bufferView":7,
			"componentType":5126,
			"count":24,
			"max":[
				1,
				0.5500314831733704,
				1
			],
			"min":[
				-1,
				-1.4499685764312744,
				-1
			],
			"type":"VEC3"
		},
		{
			"bufferView":8,
			"componentType":5126,
			"count":24,
			"type":"VEC3"
		},
		{
			"bufferView":9,
			"componentType":5126,
			"count":24,
			"type":"VEC2"
		},
		{
			"bufferView":10,
			"componentType":5123,
			"count":36,
			"type":"SCALAR"
		},
		{
			"bufferView":11,
			"componentType":5126,
			"count":24,
			"max":[
				1,
				0.5500314831733704,
				1
			],
			"min":[
				-1,
				-1.4499685764312744,
				-1
			],
			"type":"VEC3"
		},
		{
			"bufferView":12,
			"componentType":5126,
			"count":24,
			"type":"VEC3"
		},
		{
			"bufferView":13,
			"componentType":5126,
			"count":24,
			"type":"VEC2"
		},
		{
			"bufferView":14,
			"componentType":5126,
			"count":24,
			"max":[
				1,
				0.5500314831733704,
				1
			],
			"min":[
				-1,
				-1.4499685764312744,
				-1
			],
			"type":"VEC3"
		},
		{
			"bufferView":15,
			"componentType":5126,
			"count":24,
			"type":"VEC3"
		},
		{
			"bufferView":16,
			"componentType":5126,
			"count":24,
			"type":"VEC2"
		},
		{
			"bufferView":17,
			"componentType":5126,
			"count":24,
			"max":[
				1,
				0.5500314831733704,
				1
			],
			"min":[
				-1,
				-1.4499685764312744,
				-1
			],
			"type":"VEC3"
		},
		{
			"bufferView":18,
			"componentType":5126,
			"count":24,
			"type":"VEC3"
		},
		{
			"bufferView":19,
			"componentType":5126,
			"count":24,
			"type":"VEC2"
		},
		{
			"bufferView":20,
			"componentType":5126,
			"count":16,
			"max":[
				2.062779188156128,
				1,
				2.005218505859375
			],
			"min":[
				-2.0193910598754883,
				-1,
				-1.9848430156707764
			],
			"type":"VEC3"
		},
		{
			"bufferView":21,
			"componentType":5126,
			"count":16,
			"type":"VEC3"
		},
		{
			"bufferView":22,
			"componentType":5126,
			"count":16,
			"type":"VEC2"
		}
	],
	"bufferViews":[
		{
			"buffer":0,
			"byteLength":192,
			"byteOffset":0,
			"target":34962
		},
		{
			"buffer":0,
			"byteLength":192,
			"byteOffset":192,
			"target":34962
		},
		{
			"buffer":0,
			"byteLength":128,
			"byteOffset":384,
			"target":34962
		},
		{
			"buffer":0,
			"byteLength":48,
			"byteOffset":512,
			"target":34963
		},
		{
			"buffer":0,
			"byteLength":192,
			"byteOffset":560,
			"target":34962
		},
		{
			"buffer":0,
			"byteLength":192,
			"byteOffset":752,
			"target":34962
		},
		{
			"buffer":0,
			"byteLength":128,
			"byteOffset":944,
			"target":34962
		},
		{
			"buffer":0,
			"byteLength":288,
			"byteOffset":1072,
			"target":34962
		},
		{
			"buffer":0,
			"byteLength":288,
			"byteOffset":1360,
			"target":34962
		},
		{
			"buffer":0,
			"byteLength":192,
			"byteOffset":1648,
			"target":34962
		},
		{
			"buffer":0,
			"byteLength":72,
			"byteOffset":1840,
			"target":34963
		},
		{
			"buffer":0,
			"byteLength":288,
			"byteOffset":1912,
			"target":34962
		},
		{
			"buffer":0,
			"byteLength":288,
			"byteOffset":2200,
			"target":34962
		},
		{
			"buffer":0,
			"byteLength":192,
			"byteOffset":2488,
			"target":34962
		},
		{
			"buffer":0,
			"byteLength":288,
			"byteOffset":2680,
			"target":34962
		},
		{
			"buffer":0,
			"byteLength":288,
			"byteOffset":2968,
			"target":34962
		},
		{
			"buffer":0,
			"byteLength":192,
			"byteOffset":3256,
			"target":34962
		},
		{
			"buffer":0,
			"byteLength":288,
			"byteOffset":3448,
			"target":34962
		},
		{
			"buffer":0,
			"byteLength":288,
			"byteOffset":3736,
			"target":34962
		},
		{
			"buffer":0,
			"byteLength":192,
			"byteOffset":4024,
			"target":34962
		},
		{
			"buffer":0,
			"byteLength":192,
			"byteOffset":4216,
			"target":34962
		},
		{
			"buffer":0,
			"byteLength":192,
			"byteOffset":4408,
			"target":34962
		},
		{
			"buffer":0,
			"byteLength":128,
			"byteOffset":4600,
			"target":34962
		}
	],
	"buffers":[
		{
			"byteLength":4728,
			"uri":"bin.bin"
		}
	]
}
