{
	"asset":{
		"generator":"Khronos glTF Blender I/O v5.1.18",
		"version":"2.0"
	},
	"scene":0,
	"scenes":[
		{
			"name":"Scene",
			"nodes":[
				0,
				1,
				2,
				3,
				4,
				5,
				6,
				7,
				8,
				9
			]
		}
	],
	"nodes":[
		{
			"mesh":0,
			"name":"Cylinder",
			"rotation":[
				0.7071068286895752,
				0,
				0,
				0.7071068286895752
			],
			"scale":[
				0.5,
				0.7654480934143066,
				0.5
			]
		},
		{
			"mesh":1,
			"name":"Cylinder.001",
			"rotation":[
				0.7071068286895752,
				0,
				0,
				0.7071068286895752
			],
			"scale":[
				0.30000001192092896,
				0.7654480934143066,
				0.30000001192092896
			],
			"translation":[
				0,
				0,
				-0.5107122659683228
			]
		},
		{
			"mesh":2,
			"name":"Sphere",
			"scale":[
				0.30000001192092896,
				0.30000001192092896,
				0.20000001788139343
			],
			"translation":[
				0,
				0,
				-1.249179482460022
			]
		},
		{
			"mesh":3,
			"name":"Cube",
			"rotation":[
				0,
				1,
				0,
				0
			],
			"scale":[
				-0.5,
				-0.1279068887233734,
				-1.080636739730835
			],
			"translation":[
				0,
				-0.45529675483703613,
				-0.2946115732192993
			]
		},
		{
			"mesh":4,
			"name":"Cone",
			"scale":[
				0.5,
				0.4000000059604645,
				0.5
			],
			"translation":[
				0,
				1.431861162185669,
				0
			]
		},
		{
			"mesh":5,
			"name":"Cone.001",
			"rotation":[
				0,
				0,
				1,
				4.371138828673793e-08
			],
			"scale":[
				0.6000000238418579,
				0.5,
				0.6000000238418579
			],
			"translation":[
				0,
				0.39907994866371155,
				0
			]
		},
		{
			"mesh":6,
			"name":"Cylinder.002",
			"scale":[
				0.6499999761581421,
				0.06962338835000992,
				0.6499999761581421
			],
			"translation":[
				0,
				0.9869328737258911,
				0
			]
		},
		{
			"mesh":7,
			"name":"Cylinder.003",
			"scale":[
				0.05000000074505806,
				0.15471383929252625,
				0.05000000074505806
			],
			"translation":[
				0,
				1.9890916347503662,
				0
			]
		},
		{
			"mesh":8,
			"name":"Cylinder.004",
			"rotation":[
				0,
				0,
				-0.7071068286895752,
				0.7071068286895752
			],
			"scale":[
				0.05000000074505806,
				0.14308467507362366,
				0.05000000074505806
			],
			"translation":[
				0.21155427396297455,
				1.7401202917099,
				0
			]
		},
		{
			"mesh":9,
			"name":"Cylinder.005",
			"scale":[
				0.10000000149011612,
				0.20979927480220795,
				0.10000000149011612
			],
			"translation":[
				0,
				1.70479154586792,
				0
			]
		}
	],
	"meshes":[
		{
			"name":"Cylinder.003",
			"primitives":[
				{
					"attributes":{
						"POSITION":0,
						"NORMAL":1,
						"TEXCOORD_0":2
					},
					"indices":3
				}
			]
		},
		{
			"name":"Cylinder.004",
			"primitives":[
				{
					"attributes":{
						"POSITION":4,
						"NORMAL":5,
						"TEXCOORD_0":6
					},
					"indices":3
				}
			]
		},
		{
			"name":"Sphere",
			"primitives":[
				{
					"attributes":{
						"POSITION":7,
						"NORMAL":8,
						"TEXCOORD_0":9
					},
					"indices":10
				}
			]
		},
		{
			"name":"Cube.005",
			"primitives":[
				{
					"attributes":{
						"POSITION":11,
						"NORMAL":12,
						"TEXCOORD_0":13
					},
					"indices":14
				}
			]
		},
		{
			"name":"Cone",
			"primitives":[
				{
					"attributes":{
						"POSITION":15,
						"NORMAL":16,
						"TEXCOORD_0":17
					},
					"indices":18
				}
			]
		},
		{
			"name":"Cone.001",
			"primitives":[
				{
					"attributes":{
						"POSITION":19,
						"NORMAL":20,
						"TEXCOORD_0":21
					},
					"indices":22
				}
			]
		},
		{
			"name":"Cylinder.005",
			"primitives":[
				{
					"attributes":{
						"POSITION":23,
						"NORMAL":24,
						"TEXCOORD_0":25
					},
					"indices":3
				}
			]
		},
		{
			"name":"Cylinder.006",
			"primitives":[
				{
					"attributes":{
						"POSITION":26,
						"NORMAL":27,
						"TEXCOORD_0":28
					},
					"indices":29
				}
			]
		},
		{
			"name":"Cylinder.007",
			"primitives":[
				{
					"attributes":{
						"POSITION":30,
						"NORMAL":31,
						"TEXCOORD_0":32
					},
					"indices":29
				}
			]
		},
		{
			"name":"Cylinder.008",
			"primitives":[
				{
					"attributes":{
						"POSITION":33,
						"NORMAL":34,
						"TEXCOORD_0":35
					},
					"indices":29
				}
			]
		}
	],
	"accessors":[
		{
			"bufferView":0,
			"componentType":5126,
			"count":130,
			"max":[
				1,
				1,
				1
			],
			"min":[
				-1,
				-1,
				-1
			],
			"type":"VEC3"
		},
		{
			"bufferView":1,
			"componentType":5126,
			"count":130,
			"type":"VEC3"
		},
		{
			"bufferView":2,
			"componentType":5126,
			"count":130,
			"type":"VEC2"
		},
		{
			"bufferView":3,
			"componentType":5123,
			"count":372,
			"type":"SCALAR"
		},
		{
			"bufferView":4,
			"componentType":5126,
			"count":130,
			"max":[
				1,
				1,
				1
			],
			"min":[
				-1,
				-1,
				-1
			],
			"type":"VEC3"
		},
		{
			"bufferView":5,
			"componentType":5126,
			"count":130,
			"type":"VEC3"
		},
		{
			"bufferView":6,
			"componentType":5126,
			"count":130,
			"type":"VEC2"
		},
		{
			"bufferView":7,
			"componentType":5126,
			"count":559,
			"max":[
				0.9999997019767761,
				1,
				0.9999993443489075
			],
			"min":[
				-0.9999990463256836,
				-1,
				-1
			],
			"type":"VEC3"
		},
		{
			"bufferView":8,
			"componentType":5126,
			"count":559,
			"type":"VEC3"
		},
		{
			"bufferView":9,
			"componentType":5126,
			"count":559,
			"type":"VEC2"
		},
		{
			"bufferView":10,
			"componentType":5123,
			"count":2880,
			"type":"SCALAR"
		},
		{
			"bufferView":11,
			"componentType":5126,
			"count":24,
			"max":[
				1,
				1,
				1
			],
			"min":[
				-1,
				-1,
				-1
			],
			"type":"VEC3"
		},
		{
			"bufferView":12,
			"componentType":5126,
			"count":24,
			"type":"VEC3"
		},
		{
			"bufferView":13,
			"componentType":5126,
			"count":24,
			"type":"VEC2"
		},
		{
			"bufferView":14,
			"componentType":5123,
			"count":36,
			"type":"SCALAR"
		},
		{
			"bufferView":15,
			"componentType":5126,
			"count":128,
			"max":[
				1,
				0.38692712783813477,
				1
			],
			"min":[
				-1,
				-1,
				-1
			],
			"type":"VEC3"
		},
		{
			"bufferView":16,
			"componentType":5126,
			"count":128,
			"type":"VEC3"
		},
		{
			"bufferView":17,
			"componentType":5126,
			"count":128,
			"type":"VEC2"
		},
		{
			"bufferView":18,
			"componentType":5123,
			"count":372,
			"type":"SCALAR"
		},
		{
			"bufferView":19,
			"componentType":5126,
			"count":65,
			"max":[
				1,
				1,
				1
			],
			"min":[
				-1,
				-1,
				-1
			],
			"type":"VEC3"
		},
		{
			"bufferView":20,
			"componentType":5126,
			"count":65,
			"type":"VEC3"
		},
		{
			"bufferView":21,
			"componentType":5126,
			"count":65,
			"type":"VEC2"
		},
		{
			"bufferView":22,
			"componentType":5123,
			"count":186,
			"type":"SCALAR"
		},
		{
			"bufferView":23,
			"componentType":5126,
			"count":130,
			"max":[
				1,
				1,
				1
			],
			"min":[
				-1,
				-1,
				-1
			],
			"type":"VEC3"
		},
		{
			"bufferView":24,
			"componentType":5126,
			"count":130,
			"type":"VEC3"
		},
		{
			"bufferView":25,
			"componentType":5126,
			"count":130,
			"type":"VEC2"
		},
		{
			"bufferView":26,
			"componentType":5126,
			"count":98,
			"max":[
				1,
				1,
				1
			],
			"min":[
				-1,
				-1,
				-1
			],
			"type":"VEC3"
		},
		{
			"bufferView":27,
			"componentType":5126,
			"count":98,
			"type":"VEC3"
		},
		{
			"bufferView":28,
			"componentType":5126,
			"count":98,
			"type":"VEC2"
		},
		{
			"bufferView":29,
			"componentType":5123,
			"count":282,
			"type":"SCALAR"
		},
		{
			"bufferView":30,
			"componentType":5126,
			"count":98,
			"max":[
				1,
				1,
				1
			],
			"min":[
				-1,
				-1,
				-1
			],
			"type":"VEC3"
		},
		{
			"bufferView":31,
			"componentType":5126,
			"count":98,
			"type":"VEC3"
		},
		{
			"bufferView":32,
			"componentType":5126,
			"count":98,
			"type":"VEC2"
		},
		{
			"bufferView":33,
			"componentType":5126,
			"count":98,
			"max":[
				1,
				1,
				1
			],
			"min":[
				-1,
				-1,
				-1
			],
			"type":"VEC3"
		},
		{
			"bufferView":34,
			"componentType":5126,
			"count":98,
			"type":"VEC3"
		},
		{
			"bufferView":35,
			"componentType":5126,
			"count":98,
			"type":"VEC2"
		}
	],
	"bufferViews":[
		{
			"buffer":0,
			"byteLength":1560,
			"byteOffset":0,
			"target":34962
		},
		{
			"buffer":0,
			"byteLength":1560,
			"byteOffset":1560,
			"target":34962
		},
		{
			"buffer":0,
			"byteLength":1040,
			"byteOffset":3120,
			"target":34962
		},
		{
			"buffer":0,
			"byteLength":744,
			"byteOffset":4160,
			"target":34963
		},
		{
			"buffer":0,
			"byteLength":1560,
			"byteOffset":4904,
			"target":34962
		},
		{
			"buffer":0,
			"byteLength":1560,
			"byteOffset":6464,
			"target":34962
		},
		{
			"buffer":0,
			"byteLength":1040,
			"byteOffset":8024,
			"target":34962
		},
		{
			"buffer":0,
			"byteLength":6708,
			"byteOffset":9064,
			"target":34962
		},
		{
			"buffer":0,
			"byteLength":6708,
			"byteOffset":15772,
			"target":34962
		},
		{
			"buffer":0,
			"byteLength":4472,
			"byteOffset":22480,
			"target":34962
		},
		{
			"buffer":0,
			"byteLength":5760,
			"byteOffset":26952,
			"target":34963
		},
		{
			"buffer":0,
			"byteLength":288,
			"byteOffset":32712,
			"target":34962
		},
		{
			"buffer":0,
			"byteLength":288,
			"byteOffset":33000,
			"target":34962
		},
		{
			"buffer":0,
			"byteLength":192,
			"byteOffset":33288,
			"target":34962
		},
		{
			"buffer":0,
			"byteLength":72,
			"byteOffset":33480,
			"target":34963
		},
		{
			"buffer":0,
			"byteLength":1536,
			"byteOffset":33552,
			"target":34962
		},
		{
			"buffer":0,
			"byteLength":1536,
			"byteOffset":35088,
			"target":34962
		},
		{
			"buffer":0,
			"byteLength":1024,
			"byteOffset":36624,
			"target":34962
		},
		{
			"buffer":0,
			"byteLength":744,
			"byteOffset":37648,
			"target":34963
		},
		{
			"buffer":0,
			"byteLength":780,
			"byteOffset":38392,
			"target":34962
		},
		{
			"buffer":0,
			"byteLength":780,
			"byteOffset":39172,
			"target":34962
		},
		{
			"buffer":0,
			"byteLength":520,
			"byteOffset":39952,
			"target":34962
		},
		{
			"buffer":0,
			"byteLength":372,
			"byteOffset":40472,
			"target":34963
		},
		{
			"buffer":0,
			"byteLength":1560,
			"byteOffset":40844,
			"target":34962
		},
		{
			"buffer":0,
			"byteLength":1560,
			"byteOffset":42404,
			"target":34962
		},
		{
			"buffer":0,
			"byteLength":1040,
			"byteOffset":43964,
			"target":34962
		},
		{
			"buffer":0,
			"byteLength":1176,
			"byteOffset":45004,
			"target":34962
		},
		{
			"buffer":0,
			"byteLength":1176,
			"byteOffset":46180,
			"target":34962
		},
		{
			"buffer":0,
			"byteLength":784,
			"byteOffset":47356,
			"target":34962
		},
		{
			"buffer":0,
			"byteLength":564,
			"byteOffset":48140,
			"target":34963
		},
		{
			"buffer":0,
			"byteLength":1176,
			"byteOffset":48704,
			"target":34962
		},
		{
			"buffer":0,
			"byteLength":1176,
			"byteOffset":49880,
			"target":34962
		},
		{
			"buffer":0,
			"byteLength":784,
			"byteOffset":51056,
			"target":34962
		},
		{
			"buffer":0,
			"byteLength":1176,
			"byteOffset":51840,
			"target":34962
		},
		{
			"buffer":0,
			"byteLength":1176,
			"byteOffset":53016,
			"target":34962
		},
		{
			"buffer":0,
			"byteLength":784,
			"byteOffset":54192,
			"target":34962
		}
	],
	"buffers":[
		{
			"byteLength":54976,
			"uri":"centrifuge.bin"
		}
	]
}
