{
	"asset":{
		"generator":"Khronos glTF Blender I/O v5.1.18",
		"version":"2.0"
	},
	"scene":0,
	"scenes":[
		{
			"name":"Scene",
			"nodes":[
				0,
				1,
				2,
				3,
				4,
				5,
				6
			]
		}
	],
	"nodes":[
		{
			"mesh":0,
			"name":"base",
			"scale":[
				0.12231186032295227,
				0.40506619215011597,
				0.26460468769073486
			],
			"translation":[
				0.7600281834602356,
				-0.8590039014816284,
				-0.014247700572013855
			]
		},
		{
			"mesh":1,
			"name":"raio_base",
			"scale":[
				1.7273175716400146,
				0.17518866062164307,
				1.7379436492919922
			],
			"translation":[
				0,
				-0.4233591556549072,
				0
			]
		},
		{
			"mesh":2,
			"name":"cilindro",
			"scale":[
				1.6582984924316406,
				1.6157538890838623,
				1.6261698007583618
			],
			"translation":[
				0,
				1.0443830490112305,
				0
			]
		},
		{
			"mesh":3,
			"name":"raio_ropo",
			"scale":[
				1.7273175716400146,
				0.17518866062164307,
				1.7379436492919922
			],
			"translation":[
				0,
				2.4872827529907227,
				0
			]
		},
		{
			"mesh":4,
			"name":"Sphere",
			"scale":[
				1.6722874641418457,
				0.29196929931640625,
				1.6899445056915283
			],
			"translation":[
				0,
				2.615494728088379,
				0
			]
		},
		{
			"mesh":5,
			"name":"Cylinder",
			"scale":[
				0.699999988079071,
				0.5217651724815369,
				0.699999988079071
			],
			"translation":[
				0,
				2.889740467071533,
				0
			]
		},
		{
			"mesh":6,
			"name":"Cylinder.002",
			"rotation":[
				0,
				0,
				-0.5342803001403809,
				0.8453074097633362
			],
			"scale":[
				0.24148255586624146,
				0.7131854295730591,
				0.20000000298023224
			],
			"translation":[
				1.485368013381958,
				2.9705076217651367,
				0
			]
		}
	],
	"materials":[
		{
			"doubleSided":true,
			"name":"Material.001",
			"pbrMetallicRoughness":{
				"baseColorFactor":[
					0.800000011920929,
					0.800000011920929,
					0.800000011920929,
					1
				]
			}
		},
		{
			"doubleSided":true,
			"name":"Material.004",
			"pbrMetallicRoughness":{
				"baseColorFactor":[
					0.800000011920929,
					0.800000011920929,
					0.800000011920929,
					1
				]
			}
		},
		{
			"doubleSided":true,
			"name":"Material.002",
			"pbrMetallicRoughness":{
				"baseColorFactor":[
					0.800000011920929,
					0.800000011920929,
					0.800000011920929,
					1
				]
			}
		},
		{
			"doubleSided":true,
			"name":"Material.006",
			"pbrMetallicRoughness":{
				"baseColorFactor":[
					0.800000011920929,
					0.800000011920929,
					0.800000011920929,
					1
				]
			}
		}
	],
	"meshes":[
		{
			"name":"Cube.001",
			"primitives":[
				{
					"attributes":{
						"POSITION":0,
						"NORMAL":1,
						"TEXCOORD_0":2
					},
					"indices":3,
					"material":0
				}
			]
		},
		{
			"name":"Cylinder.001",
			"primitives":[
				{
					"attributes":{
						"POSITION":4,
						"NORMAL":5,
						"TEXCOORD_0":6
					},
					"indices":7,
					"material":1
				}
			]
		},
		{
			"name":"Cylinder.004",
			"primitives":[
				{
					"attributes":{
						"POSITION":8,
						"NORMAL":9,
						"TEXCOORD_0":10
					},
					"indices":11,
					"material":2
				}
			]
		},
		{
			"name":"Cylinder.005",
			"primitives":[
				{
					"attributes":{
						"POSITION":12,
						"NORMAL":13,
						"TEXCOORD_0":14
					},
					"indices":15,
					"material":3
				}
			]
		},
		{
			"name":"Sphere",
			"primitives":[
				{
					"attributes":{
						"POSITION":16,
						"NORMAL":17,
						"TEXCOORD_0":18
					},
					"indices":19
				}
			]
		},
		{
			"name":"Cylinder",
			"primitives":[
				{
					"attributes":{
						"POSITION":20,
						"NORMAL":21,
						"TEXCOORD_0":22
					},
					"indices":15
				}
			]
		},
		{
			"name":"Cylinder.003",
			"primitives":[
				{
					"attributes":{
						"POSITION":23,
						"NORMAL":24,
						"TEXCOORD_0":25
					},
					"indices":15
				}
			]
		}
	],
	"accessors":[
		{
			"bufferView":0,
			"componentType":5126,
			"count":200,
			"max":[
				7.279037952423096,
				1.4386652708053589,
				6.38372278213501
			],
			"min":[
				-20.22862434387207,
				-1.925847053527832,
				-6.331521034240723
			],
			"type":"VEC3"
		},
		{
			"bufferView":1,
			"componentType":5126,
			"count":200,
			"type":"VEC3"
		},
		{
			"bufferView":2,
			"componentType":5126,
			"count":200,
			"type":"VEC2"
		},
		{
			"bufferView":3,
			"componentType":5123,
			"count":378,
			"type":"SCALAR"
		},
		{
			"bufferView":4,
			"componentType":5126,
			"count":130,
			"max":[
				1,
				1,
				1
			],
			"min":[
				-1,
				-1,
				-1
			],
			"type":"VEC3"
		},
		{
			"bufferView":5,
			"componentType":5126,
			"count":130,
			"type":"VEC3"
		},
		{
			"bufferView":6,
			"componentType":5126,
			"count":130,
			"type":"VEC2"
		},
		{
			"bufferView":7,
			"componentType":5123,
			"count":372,
			"type":"SCALAR"
		},
		{
			"bufferView":8,
			"componentType":5126,
			"count":98,
			"max":[
				1,
				1,
				1
			],
			"min":[
				-1,
				-1,
				-1
			],
			"type":"VEC3"
		},
		{
			"bufferView":9,
			"componentType":5126,
			"count":98,
			"type":"VEC3"
		},
		{
			"bufferView":10,
			"componentType":5126,
			"count":98,
			"type":"VEC2"
		},
		{
			"bufferView":11,
			"componentType":5123,
			"count":282,
			"type":"SCALAR"
		},
		{
			"bufferView":12,
			"componentType":5126,
			"count":66,
			"max":[
				1,
				1,
				1
			],
			"min":[
				-1,
				-1,
				-1
			],
			"type":"VEC3"
		},
		{
			"bufferView":13,
			"componentType":5126,
			"count":66,
			"type":"VEC3"
		},
		{
			"bufferView":14,
			"componentType":5126,
			"count":66,
			"type":"VEC2"
		},
		{
			"bufferView":15,
			"componentType":5123,
			"count":192,
			"type":"SCALAR"
		},
		{
			"bufferView":16,
			"componentType":5126,
			"count":871,
			"max":[
				0.9999997019767761,
				0.9444707036018372,
				0.9999993443489075
			],
			"min":[
				-0.9999990463256836,
				-0.8314695954322815,
				-1
			],
			"type":"VEC3"
		},
		{
			"bufferView":17,
			"componentType":5126,
			"count":871,
			"type":"VEC3"
		},
		{
			"bufferView":18,
			"componentType":5126,
			"count":871,
			"type":"VEC2"
		},
		{
			"bufferView":19,
			"componentType":5123,
			"count":3279,
			"type":"SCALAR"
		},
		{
			"bufferView":20,
			"componentType":5126,
			"count":66,
			"max":[
				1,
				1,
				1
			],
			"min":[
				-1,
				-1,
				-1
			],
			"type":"VEC3"
		},
		{
			"bufferView":21,
			"componentType":5126,
			"count":66,
			"type":"VEC3"
		},
		{
			"bufferView":22,
			"componentType":5126,
			"count":66,
			"type":"VEC2"
		},
		{
			"bufferView":23,
			"componentType":5126,
			"count":66,
			"max":[
				1,
				1,
				1
			],
			"min":[
				-1,
				-1,
				-1
			],
			"type":"VEC3"
		},
		{
			"bufferView":24,
			"componentType":5126,
			"count":66,
			"type":"VEC3"
		},
		{
			"bufferView":25,
			"componentType":5126,
			"count":66,
			"type":"VEC2"
		}
	],
	"bufferViews":[
		{
			"buffer":0,
			"byteLength":2400,
			"byteOffset":0,
			"target":34962
		},
		{
			"buffer":0,
			"byteLength":2400,
			"byteOffset":2400,
			"target":34962
		},
		{
			"buffer":0,
			"byteLength":1600,
			"byteOffset":4800,
			"target":34962
		},
		{
			"buffer":0,
			"byteLength":756,
			"byteOffset":6400,
			"target":34963
		},
		{
			"buffer":0,
			"byteLength":1560,
			"byteOffset":7156,
			"target":34962
		},
		{
			"buffer":0,
			"byteLength":1560,
			"byteOffset":8716,
			"target":34962
		},
		{
			"buffer":0,
			"byteLength":1040,
			"byteOffset":10276,
			"target":34962
		},
		{
			"buffer":0,
			"byteLength":744,
			"byteOffset":11316,
			"target":34963
		},
		{
			"buffer":0,
			"byteLength":1176,
			"byteOffset":12060,
			"target":34962
		},
		{
			"buffer":0,
			"byteLength":1176,
			"byteOffset":13236,
			"target":34962
		},
		{
			"buffer":0,
			"byteLength":784,
			"byteOffset":14412,
			"target":34962
		},
		{
			"buffer":0,
			"byteLength":564,
			"byteOffset":15196,
			"target":34963
		},
		{
			"buffer":0,
			"byteLength":792,
			"byteOffset":15760,
			"target":34962
		},
		{
			"buffer":0,
			"byteLength":792,
			"byteOffset":16552,
			"target":34962
		},
		{
			"buffer":0,
			"byteLength":528,
			"byteOffset":17344,
			"target":34962
		},
		{
			"buffer":0,
			"byteLength":384,
			"byteOffset":17872,
			"target":34963
		},
		{
			"buffer":0,
			"byteLength":10452,
			"byteOffset":18256,
			"target":34962
		},
		{
			"buffer":0,
			"byteLength":10452,
			"byteOffset":28708,
			"target":34962
		},
		{
			"buffer":0,
			"byteLength":6968,
			"byteOffset":39160,
			"target":34962
		},
		{
			"buffer":0,
			"byteLength":6558,
			"byteOffset":46128,
			"target":34963
		},
		{
			"buffer":0,
			"byteLength":792,
			"byteOffset":52688,
			"target":34962
		},
		{
			"buffer":0,
			"byteLength":792,
			"byteOffset":53480,
			"target":34962
		},
		{
			"buffer":0,
			"byteLength":528,
			"byteOffset":54272,
			"target":34962
		},
		{
			"buffer":0,
			"byteLength":792,
			"byteOffset":54800,
			"target":34962
		},
		{
			"buffer":0,
			"byteLength":792,
			"byteOffset":55592,
			"target":34962
		},
		{
			"buffer":0,
			"byteLength":528,
			"byteOffset":56384,
			"target":34962
		}
	],
	"buffers":[
		{
			"byteLength":56912,
			"uri":"mixer.bin"
		}
	]
}
